<svg viewBox="0 0 1000 1000" width="1000" height="1000" xmlns="http://www.w3.org/2000/svg"><path d="M724.38 401.114l14.296 21.26-21.26 14.297-14.297-21.26z" fill="#60d8d2"/><rect fill="#ccc" height="676.76" rx="64.84" width="368.73" x="231.33" y="161.62"/><rect fill="none" height="676.76" rx="64.84" stroke="#000" stroke-miterlimit="10" width="368.73" x="231.33" y="161.62"/><path d="M534.11 174.33h-38.62a10.74 10.74 0 00-9.75 6.22l-1.34 2.87a10.76 10.76 0 01-9.75 6.22h-117.9a10.76 10.76 0 01-9.75-6.22l-1.34-2.87a10.73 10.73 0 00-9.75-6.22h-38.62a54.73 54.73 0 00-54.73 54.72V771a54.73 54.73 0 0054.73 54.72h236.82A54.73 54.73 0 00588.84 771V229.05a54.73 54.73 0 00-54.73-54.72z" fill="#f4f4f4"/><g stroke="#000" stroke-miterlimit="10"><path d="M600.07 259.68h6.6v84.05h-6.6zM600.07 362.73h6.6v84.05h-6.6zM224.73 301.71h6.6v84.05h-6.6z"/></g><path d="M312.13 531.03h120.96v105.26H312.13z" fill="#e9e9e9"/><path d="M519.33 636.3h-86.24V531.04h86.24z" fill="#ccc"/><path d="M519.33 531.03h-86.24l31.19-27.93h86.24z" fill="#e9e9e9"/><path d="M312.07 531.03h86.24l-31.18-27.93h-86.25z" fill="#ccc"/><g fill="#fff"><path d="M489.215 296.85l22.315 38.651-169.343 97.77-22.315-38.65z"/><path d="M393.39 267.29h44.63v195.54h-44.63z"/><path d="M319.875 335.49l22.315-38.651 169.343 97.77-22.315 38.65z"/><circle cx="415.7" cy="365.06" r="78.7"/></g><circle cx="415.7" cy="365.06" fill="#e9e9e9" r="22.73"/><path d="M492.22 346.64l19.31-11.15-22.32-38.64L469.9 308a78.48 78.48 0 00-31.9-18.39v-22.32h-44.61v22.3A78.53 78.53 0 00361.5 308l-19.31-11.15-22.32 38.64 19.33 11.17a78.69 78.69 0 000 36.81l-19.31 11.15 22.32 38.64 19.31-11.15a78.54 78.54 0 0031.89 18.39v22.32H438v-22.3a78.53 78.53 0 0031.89-18.41l19.31 11.15 22.32-38.64-19.32-11.16a78.73 78.73 0 00.02-36.82z" fill="none" stroke="#000" stroke-miterlimit="10"/><rect fill="#fff" height="28.52" rx="14.26" width="258.2" x="286.6" y="676.57"/><path d="M530.54 676.57h-97.45v28.52h97.45a14.26 14.26 0 0014.26-14.26 14.27 14.27 0 00-14.26-14.26z" fill="#e9e9e9"/><rect fill="none" height="28.52" rx="14.26" stroke="#000" stroke-miterlimit="10" width="258.2" x="286.6" y="676.57"/><g fill="#ccc"><path d="M355.92 746.43h119.56v2.33H355.92zM355.92 757.39h119.56v2.33H355.92zM355.92 768.36h72.48v2.33h-72.48z"/></g><path d="M464.28 503.1l-31.19 27.93h-34.78l-31.18-27.93h-86.25l31.19 27.93h.06V636.3h207.2V531.03l31.19-27.93zM433.09 531.03H326.31" fill="none" stroke="#000" stroke-miterlimit="10"/><path d="M685.6 433.38a54.49 54.49 0 01.93 11.89 56.82 56.82 0 01-.31 7.94 11.82 11.82 0 01-3.1 7 8.82 8.82 0 01-7.14 2.38 11.64 11.64 0 01-8-4.16c-.4-.5-1.1.21-.71.71 3.43 4.29 10.58 6.11 15.27 2.85 4.94-3.43 5-9.86 5-15.28a62.84 62.84 0 00-1-13.56c-.14-.62-1.1-.36-1 .27zM672.55 444.6a1.06 1.06 0 00-.44.56v.09a1.64 1.64 0 000 .22 1.79 1.79 0 000 .23v.11a1.64 1.64 0 00.14.3 1.09 1.09 0 00.13.17.27.27 0 00.08.07.33.33 0 00.1.06.54.54 0 00.3.08.58.58 0 00.4-.16.64.64 0 00.16-.6 2.33 2.33 0 00-.14-.33l-.13-.27a.5.5 0 00-.3-.23.46.46 0 00-.38.05.48.48 0 00-.23.29v.14a.45.45 0 00.07.25c.06.14.13.28.19.43v-.12a.14.14 0 010 .07v-.34l.08-.1.1-.08.12-.05h.26l.12.05h-.05l.1.07v-.05l.08.1a1.08 1.08 0 01-.11-.18l.05.12a1 1 0 010-.17v.13a.74.74 0 010-.14l-.05.12.06-.11-.08.11.09-.09-.1.07a.5.5 0 00.18-.68.5.5 0 00-.3-.23.53.53 0 00-.39.05z"/><path d="M682.73 445.13a1.06 1.06 0 00-.44.56v.09a1.28 1.28 0 000 .45v.11a1.64 1.64 0 00.14.3 1.09 1.09 0 00.13.17.27.27 0 00.08.07l.1.07a.64.64 0 00.3.08.59.59 0 00.4-.17.63.63 0 00.16-.6 2.33 2.33 0 00-.14-.33l-.13-.27a.5.5 0 00-.3-.23.46.46 0 00-.38.05.5.5 0 00-.23.3v.13a.45.45 0 00.07.25c.06.14.13.28.19.43v-.12a.19.19 0 010 .07v-.19l.05-.12.07-.11.1-.08h.43l.1.08v-.06l.08.11a.72.72 0 01-.11-.19v.12a1.09 1.09 0 010-.17v.13a.75.75 0 010-.15v.13a.5.5 0 010-.13v.12a.39.39 0 01.06-.11l-.08.1.09-.09-.1.08a.57.57 0 00.23-.3.53.53 0 00-.05-.39.5.5 0 00-.3-.23.53.53 0 00-.39.05zM662.68 446.93a6.45 6.45 0 01-2.65-2.06 4.81 4.81 0 01-1.1-3.4 2 2 0 012.49-1.66 3.08 3.08 0 012.2 2.46c.14.63 1.1.37 1-.26a4.26 4.26 0 00-1.91-2.77 3.34 3.34 0 00-3.4-.06c-2.26 1.46-1.32 4.66 0 6.39a7.71 7.71 0 003.11 2.33.51.51 0 00.61-.35.52.52 0 00-.35-.62z"/><path d="M660.56 441.75a.7.7 0 01.85.1 2.21 2.21 0 01.54.83 5.5 5.5 0 01.5 2.15c0 .16.26.16.25 0a6 6 0 00-.65-2.53 1.67 1.67 0 00-.73-.8.89.89 0 00-.94.08c-.12.1 0 .27.18.17z"/><path d="M661.47 443.13h.05a.34.34 0 01.22 0 .3.3 0 01.11.06.28.28 0 01.1.09 1 1 0 01.17.24.12.12 0 10.21-.12.91.91 0 00-.55-.52.52.52 0 00-.61.23.12.12 0 10.21.12zM661.5 447.49c.19 6.55-.07 13.14-.49 19.68-.11 1.75-.25 3.51-.42 5.26-.06.64.94.63 1 0 .65-6.66.91-13.38.95-20.06v-4.88a.5.5 0 00-1 0zM680 462.67c-.14 3.64-.46 7.31-.31 10.95 0 .64 1 .65 1 0-.15-3.64.17-7.31.31-10.95 0-.64-1-.64-1 0zM677.81 444.92a25.47 25.47 0 01.35 5.23c0 .64 1 .64 1 0a28.17 28.17 0 00-.38-5.5.5.5 0 00-1 .27zM671.09 440.89l.24-.13s.14-.08 0 0a.34.34 0 01.14-.05 2.75 2.75 0 01.49-.14h.87s.2 0 0 0a.59.59 0 00.39-.05.57.57 0 00.23-.3.51.51 0 00-.35-.62 3.94 3.94 0 00-2.56.46.5.5 0 10.51.86zM681.81 441.92l.24-.12h.14a3 3 0 01.49-.14H683.53a.59.59 0 00.39-.05.53.53 0 00.23-.3.51.51 0 00-.35-.62 4 4 0 00-2.56.46.5.5 0 10.51.86z"/><path d="M668 459.69s6.06 9.45 12.17 12.55l.25-4.69.08-4.88-2.83.58c-3.54.75-8.48-2.25-9.67-3.56zM674.65 452.94a6 6 0 002.39 1 .5.5 0 10.27-1 4.34 4.34 0 01-1.17-.33h-.06l-.15-.07-.24-.13a4.72 4.72 0 01-.53-.33.5.5 0 00-.69.18.51.51 0 00.18.68z"/><path d="M661.09 472.43s-26.62-4.45-33.35 11.4 5.12 61.89 20.2 63.86c18.31 2.38 38.37-14.68 46.08-28a6.9 6.9 0 012-2.16c1.18-.86 2.61-2.42 1.09-4.32" fill="none" stroke="#000" stroke-miterlimit="10"/><path d="M690.08 504a3.2 3.2 0 00-4.7 1 4.05 4.05 0 01-2 1.6c-6.12 2.49-29.77 12.52-34.39 21.2" fill="none" stroke="#000" stroke-miterlimit="10"/><path d="M698 497.06c-2.14 1.09-4.51 2.25-6.12 4.1a13.63 13.63 0 00-3 5.64c-.14.63.82.89 1 .27a12.54 12.54 0 012.79-5.31c1.54-1.73 3.79-2.8 5.83-3.84.57-.29.06-1.16-.51-.86zM709.27 500.68a46.94 46.94 0 01-5.41.76 20.52 20.52 0 01-5.31-.09c-.63-.12-.9.85-.26 1a21.19 21.19 0 005.57.13 48.94 48.94 0 005.67-.79c.63-.13.37-1.09-.26-1zM706.45 504.42a9.2 9.2 0 01-2.58.41.51.51 0 00-.5.5.5.5 0 00.5.5 10.66 10.66 0 002.85-.45.5.5 0 00.35-.61.52.52 0 00-.62-.35zM704.73 507.87a18 18 0 01-3 .34.51.51 0 00-.5.5.51.51 0 00.5.5 20.45 20.45 0 003.31-.37.5.5 0 00-.27-1zM703 511.13c-2.56.78-5.12 1.76-7.83 1.75a.5.5 0 000 1c2.81 0 5.44-1 8.09-1.78a.5.5 0 00-.26-1z"/><path d="M695.68 513.64a29.31 29.31 0 01-6.53-8.12c-.3-.56-1.17-.06-.86.51a30.2 30.2 0 006.68 8.32c.48.42 1.19-.29.71-.71zM650.57 509.86l2.81 7.79a14 14 0 011.15 3.69c.05.93 1.42.75 1.15-.13a.53.53 0 00-.48-.36h-.05a.5.5 0 000 1h.05l-.48-.37v-.14l.23-.3h-.06.5l-.08-.06.23.3c0-.12.06-.37 0-.52a5.21 5.21 0 00-.24-.66l-.55-1.53-1.07-3-2.18-6c-.21-.6-1.18-.34-1 .26zM662.24 546.54c4.58.09 9.18-.18 13.75-.34 6-.22 12-.45 18-.5h4a21.19 21.19 0 012.27.07 2.78 2.78 0 002.57-.71c1.56-1.62 1.16-4.44.94-6.44-.29-2.71-.36-5.45-.39-8.17 0-4.25.16-8.48.29-12.73v-.23c0-.65-1-.65-1 0-.19 3.47-.28 7-.3 10.43 0 2.76 0 5.53.19 8.29.08 1.31.27 2.61.36 3.93a7.64 7.64 0 01-.35 3.49 2 2 0 01-1 1.11 1.31 1.31 0 01-.52.11h-.38a10.17 10.17 0 00-1.65-.11h-3.76c-5.83 0-11.65.22-17.47.43-4.78.18-9.58.42-14.37.42h-1.11a.5.5 0 000 1zM686 426.87s3.74.33 2.36-2.52-19.87-3.34-23.3 2.77c0 0-7.73 1.54-8.63 7.41s2.91 17.5 3.31 19.16c.74 3 2.24 3.24 2.24 3s.08-6.53.08-6.53-.14-3.25-1.58-4.06-3.12-3.39-2-5 1.66-3 4-1.39l1.58 2.9s1.54-.05 1.48-.32.18-4.69.18-4.69a6 6 0 003.69-4.37s8.3 4.54 13.19 3.64c4.37-.8 1.34-3.07.63-3.55.67.43 3.6 2.08 5.89-.09 2.65-2.45-.36-5.79-3.12-6.36z"/><path d="M687.86 432.33c.21-.65 1.07 5.52-1 9.31 0 0-.71-9-1.61-9.92"/><path d="M700.24 501.62l3.31-17.81a2.1 2.1 0 012.07-1.72h13.2a2.1 2.1 0 012.06 2.54l-6.6 31.2a2.12 2.12 0 01-2.06 1.67h-12.09a2.1 2.1 0 01-2-2.66l.51-1.88" fill="none" stroke="#000" stroke-miterlimit="10"/><path d="M703 536.28c1 4 3.25 7.51 7.3 8.8a11.56 11.56 0 009-1.14c5.43-2.94 6.89-8.7 7-14.46.22-7.86-1.52-15.91-4-23.35-.41-1.28-.86-2.55-1.37-3.79a12.81 12.81 0 01-.92-4.54 3.47 3.47 0 00-1.37-3" fill="none" stroke="#000" stroke-miterlimit="10"/><path d="M707.24 529.74a39.76 39.76 0 01-.52-5.87q0-1.43.06-2.85c0-.46.06-.91.1-1.37 0-.22 0-.45.07-.68s0-.3 0-.45 0-.32-.28-.07l-.5-.5c0 .65 1 .64 1 0a.5.5 0 00-.5-.5.69.69 0 00-.65.49 8.07 8.07 0 00-.19 1.71c-.1 1.14-.16 2.28-.16 3.42a42.54 42.54 0 00.55 6.94c.11.63 1.07.36 1-.27zM699.71 482.26c-1 3.35.48 6.71 1.87 9.71.27.59 1.13.08.86-.5-1.27-2.76-2.65-5.87-1.77-9a.5.5 0 00-1-.26zM704.13 473.47a13.59 13.59 0 00-1.22 5.47.5.5 0 001 0 12.51 12.51 0 011.08-5 .5.5 0 10-.86-.5zM707.31 474.89a11.31 11.31 0 00-.82 2.73.51.51 0 00.35.61.51.51 0 00.62-.35 9.75 9.75 0 01.29-1.3c.06-.21.13-.42.2-.62l.12-.32.06-.14c0-.05 0-.06 0 0v-.09a.5.5 0 10-.86-.51zM710.66 476a7.77 7.77 0 00-.33.92 6.33 6.33 0 00-.16 1 .47.47 0 00.15.35.5.5 0 00.85-.35v-.18.13a6 6 0 01.39-1.43v.12a.53.53 0 00.05-.39.52.52 0 00-.23-.3.5.5 0 00-.68.18zM713.66 476.53a9.64 9.64 0 00.29 5.27.5.5 0 101-.26 8.7 8.7 0 01-.29-4.74c.14-.63-.82-.9-1-.27z"/><path d="M680.35 474.11c7.42-1.49 16.45-4.21 23.13.86.51.38 1-.48.5-.87-5.35-4.05-12.42-3.26-18.6-2.05-1.77.35-3.53.74-5.3 1.1-.63.12-.36 1.09.27 1z"/><path d="M657.26 472.6c1.5 4.39 5.48 7.3 9.86 8.42s10.17 1.14 14-1.86a8.26 8.26 0 003.25-6.07c0-.65-1-.65-1 0-.17 4.45-4.54 7-8.53 7.46-4.29.52-9.1-.3-12.61-2.92a11.22 11.22 0 01-4-5.3c-.2-.6-1.17-.34-1 .27z"/><g fill="none" stroke="#000" stroke-miterlimit="10"><path d="M647.94 547.69a34.45 34.45 0 01-1.91 9.63 98.87 98.87 0 00-2.2 57A625.79 625.79 0 00664 675.73a17.24 17.24 0 01.67 10.34c-3.18 13-10.82 47.69-9.47 76.2 1.41 29.89 5 62.86 6.19 73a3.52 3.52 0 003.51 3.12h30a3.54 3.54 0 002.56-6l-3.91-4.11a3.51 3.51 0 01-.91-3.1c10.77-55.51 22-115.12 14.63-171.62a370.62 370.62 0 00-8.95-45.45 50.56 50.56 0 00-3-9.4"/><path d="M700.24 545.27v1.46a15.14 15.14 0 002.66 8.59c11 16.12 52.79 79 55.33 111.82 2.93 37.79-16.5 56.13-50 57.39M664 675.73c.26-.78-15.53-.37-16.75-.26a82.47 82.47 0 01-25.93-1.65c-3-.71-13.34-5.46-15.32-1.45-7.06 14.35-5.88 37.67-5.88 40.71 0 2.08 4.09-1.56 6.66-4.05a4.9 4.9 0 014.81-1.18c18.46 5.49 46.72 10 46.72 10"/></g><path d="M707.54 656.92c2.76 8.27 8.29 15.13 13.72 21.8.41.5 1.11-.21.71-.71-5.32-6.52-10.77-13.26-13.47-21.35-.2-.61-1.17-.35-1 .26z"/><path d="M709.85 674.38a31.25 31.25 0 017.85.07c.64.06.64-.94 0-1a32.37 32.37 0 00-8.11 0c-.64.11-.37 1.07.26 1zM661 472.86c3.72 4.88 11 7.16 16.7 4.5a6.49 6.49 0 003.54-3.57c0-.15-.19-.22-.24-.07-1.37 3.82-6.46 4.78-10 4.41a14.18 14.18 0 01-9.78-5.4c-.1-.12-.32 0-.22.13zM661.43 571.88a39.75 39.75 0 01-9.43 14.56c-.12.11.06.29.18.18a40.43 40.43 0 009.5-14.62c.05-.15-.19-.22-.25-.07z"/><path d="M656 582.11a10.27 10.27 0 00-.27-2.13c-.08-.36-.17-.72-.26-1.08l-.12-.52c0-.19-.16-.49 0-.66a1.73 1.73 0 01.89-.31 9.42 9.42 0 011.06-.06 4.48 4.48 0 001.77-.29c.14-.07 0-.28-.13-.22a5.56 5.56 0 01-2.15.27 4.45 4.45 0 00-1 .14 1.26 1.26 0 00-.71.37c-.18.24 0 .57 0 .83s.2.81.29 1.22a10.72 10.72 0 01.35 2.44.13.13 0 00.25 0zM686 674.46a12.35 12.35 0 005.26-1.79c.14-.08 0-.3-.12-.21a12.11 12.11 0 01-5.14 1.75c-.16 0-.16.27 0 .25zM689.1 681l2.61-1.29c.14-.08 0-.29-.13-.22l-2.58 1.25c-.14.08 0 .29.13.22zM696.9 677.12l2.6-.9c.15-.05.09-.29-.07-.24l-2.59.9c-.15 0-.09.29.06.24zM739.5 682.28a6.13 6.13 0 014.7-.62c.16.05.22-.19.07-.24a6.34 6.34 0 00-4.89.65.12.12 0 10.12.21zM742.49 688.33a7.44 7.44 0 003.07-1.32c.13-.09 0-.31-.13-.21a7.35 7.35 0 01-3 1.29c-.16 0-.09.27.07.24zM739.05 674.43l4.75-3.08c.13-.09 0-.31-.13-.22l-4.75 3.09c-.13.08 0 .3.13.21zM619.18 673.67c-4 8.18-5.4 17.31-6.09 26.32-.2 2.62-.35 5.26-.49 7.89 0 .16.24.16.25 0 .49-9 1-18.17 3.68-26.85a48.31 48.31 0 012.86-7.23c.07-.14-.14-.27-.21-.13zM661.17 829.08c8.29-1.64 16.79-1.24 25.15-2.19a59.43 59.43 0 006.77-1.15c.16 0 .09-.28-.07-.25-8.23 1.94-16.74 1.6-25.11 2.39a67.82 67.82 0 00-6.8 1c-.16 0-.1.27.06.24zM652 512.34c.44-.11 6.31 4 14 2.35 0 0-8.91 5.33-9.38 5.66s-1.54 2-2.5-2a21.31 21.31 0 00-2.12-6.01zM668.25 543.53s-6.56 2.6-3.47 2.52 17.29-.51 17.29-.51a54 54 0 0011.74-12.95c5.34-8.23 9.09-9.12 9.09-9.12l.23-4.24s1.27-2.05-1.66-1.73-3.24-1.21-3.24-1.21h-1a8.53 8.53 0 00-3.19 3.89c-.73 2.31-10.79 13.06-12.87 14.65s-12.92 8.7-12.92 8.7z"/><path d="M702.84 527.27s-1.1 9 2 13.51 4.79 4.07 4.79 4.07-8-5.34-2.93-18.78c1.67-4.43 6.41-8.36 6.41-8.36h-11.64l1.4 3.75M701.31 552.33s-19.5 13.79-58.48 16.45c0 0 2.33-8.93 2.76-10.2s1.78-6.25 1.78-6.25 0-4.41 1.64-4.42 9.6-.47 10.47-1 10.16-2.27 13-2.05 11.62.59 14.12.73 11.46-.33 11.46-.33 2.56-.25 2.2 1.52M657.42 675.26c-.11 0-1.74 32.79 1.09 41.49 0 0 4.18-22 4.41-23.09s2.38-11.39 2.23-12.81-.52-3.21-.52-3.21 1.15-3.38-7.21-2.38zM719.78 676.1s1.93 1.8.71 5.22-6.66 35.11-4.63 42.6c0 0-8.18 3.1-7.4-1.71s1.22-19.39 1.22-19.39v-20.65l-.33-5.17s-1.1-3.3 2.1-3.3 4.58.1 4.58.1 2.79.52 3.75 2.3zM698.88 610.14c-.22-.42 11.18 22.69 14.55 57.44l-4-7.12s-2.62-6.07-2.4-8.82-6.76-38.89-8.15-41.5zM714.11 516.29c.17-.46 8.51-6.76 8.09-9.36a31.43 31.43 0 00-1.46-5.31s-.62-3.38-.65-3.82-1.35-5.79-1.87-.6"/><path d="M638.16 538.67a6.76 6.76 0 014.46-.45 9.12 9.12 0 017.55 9.36.13.13 0 00.25 0 9.53 9.53 0 00-3.71-7.85 9.42 9.42 0 00-4.31-1.8 6.8 6.8 0 00-4.36.52c-.14.09 0 .3.12.22zM710.84 545.29a4.13 4.13 0 011.41-3.58 6.9 6.9 0 013.08-1.81 6.71 6.71 0 016.64 2 .12.12 0 00.18-.17 6.94 6.94 0 00-7.21-2c-2.15.7-4.94 3-4.34 5.6a.13.13 0 00.24-.07zM652 509.06a124.54 124.54 0 0125.27-3.43c1.17 0 2.35-.06 3.52-.06h3c.07 0 .8.19.68.26s0 .29.12.21c.38-.2 0-.58-.27-.68a4.89 4.89 0 00-1.38-.06h-1.82c-2.38 0-4.77.07-7.15.21a123.88 123.88 0 00-14.11 1.63q-4 .7-8 1.66a.13.13 0 00.07.24zM688.34 534a48 48 0 0114.47-1.47c.16 0 .16-.24 0-.25a48.14 48.14 0 00-14.54 1.48.13.13 0 00.07.24z"/><path d="M655.14 516.47a26 26 0 014.16-8.82h-.2q3 3.45 5.88 6.94c.06.08.18 0 .21-.05a36.14 36.14 0 013.55-8.2h-.2q2.15 2.42 4.28 4.85c.11.12.29-.06.18-.18l-4.28-4.85a.13.13 0 00-.2 0 37.53 37.53 0 00-3.58 8.25h.21q-2.91-3.5-5.87-6.94a.13.13 0 00-.2 0 26.15 26.15 0 00-4.18 8.88.13.13 0 00.24.07zM675.15 509.93l.83-2 .41-1a6 6 0 01.43-1c.06-.08.14-.2.25-.1a.76.76 0 01.08.21c.05.13.1.26.16.38a6.09 6.09 0 00.42.8 6.93 6.93 0 001.14 1.39c.12.1.3-.07.18-.18a6.42 6.42 0 01-1.3-1.67 8.35 8.35 0 01-.42-1 .35.35 0 00-.53-.2 1.64 1.64 0 00-.45.79l-.47 1.14-1 2.32c-.06.15.18.21.24.06zM696.71 526.1a49.23 49.23 0 015 6.23c.09.13.31 0 .22-.13a50 50 0 00-5.07-6.27c-.11-.12-.28.06-.17.17zM634.53 376q9.22 14.7 17 30.24 2.21 4.39 4.27 8.85c.07.15.29 0 .22-.12q-7.34-15.74-16.15-30.7-2.5-4.23-5.11-8.4c-.09-.13-.3 0-.22.13zM630.84 429.73l14 14.62c.11.11.29-.06.18-.18l-14-14.62a.13.13 0 00-.18.18zM635.06 422l4.74 4.82a.12.12 0 00.17-.18l-4.74-4.82c-.11-.11-.28.07-.17.18zM714.34 367.63q0 17.06-.48 34.11t-1.42 34.08q-.53 9.57-1.2 19.14c0 .16.23.16.25 0q1.2-17 1.94-34.06t1-34.1q.15-9.58.16-19.17a.13.13 0 00-.25 0zM710.18 464.5v1.74a.13.13 0 00.25 0v-1.74a.13.13 0 00-.25 0zM712.79 342.65v5.22a.13.13 0 00.25 0v-5.22a.13.13 0 00-.25 0zM775.15 369.93q-4.53 15.35-9.48 30.55t-10.27 30.17q-3 8.46-6.14 16.87c0 .15.19.21.25.07q5.58-15 10.76-30.13t9.9-30.29q2.67-8.57 5.22-17.18a.12.12 0 00-.24-.06zM739.78 492l2.6-3.92c.09-.13-.13-.26-.22-.12l-2.59 3.91c-.09.14.12.26.21.13zM613.46 469.15l2.93 2.93c.12.12.29-.06.18-.18l-2.93-2.9c-.12-.11-.29.07-.18.18z"/><circle cx="590.9" cy="470.53" fill="#8f8fef" r="20.5"/><path d="M672.63 318.1l-23 26.36a2 2 0 001.14 3.31l34.32 6.73a2 2 0 002.3-2.64l-11.33-33.09a2 2 0 00-3.43-.67z" fill="#ff6679"/><path d="M581.35 394.58l10.73-10.73a3.1 3.1 0 00.8-3L589 366.21a3.08 3.08 0 00-2.18-2.18l-14.66-3.93a3.1 3.1 0 00-3 .8l-10.76 10.73a3.1 3.1 0 00-.8 3l3.93 14.66a3.1 3.1 0 002.18 2.18l14.66 3.93a3.09 3.09 0 002.98-.82z" fill="#ffa766"/></svg>